<?xml version="1.0" encoding="utf-8"?>
<!-- Generator: Adobe Illustrator 26.0.3, SVG Export Plug-In . SVG Version: 6.00 Build 0)  -->
<svg version="1.1" id="Warstwa_1" xmlns="http://www.w3.org/2000/svg" xmlns:xlink="http://www.w3.org/1999/xlink" x="0px" y="0px"
	 viewBox="0 0 696.1 124" style="enable-background:new 0 0 696.1 124;" xml:space="preserve">
<style type="text/css">
	.st0{fill:#00237D;}
</style>
<g>
	<path class="st0" d="M72.8,10.5c-0.2-1.7-1.2-3.2-2.7-4.6S66.9,3.5,64.7,3c-2.2-0.5-5.4-0.5-9.3-0.7h-0.2H36.5l-19,75.1h15.4
		l8.3-32.4h3.7c1.7,0,2.9,0.7,3.4,2c0.5,1.2,0.5,2.9,0,4.9L44,67.9c-0.7,2.7-1,4.6-1.2,6.6c0,1.7,0,2.9,0.2,3.4h15.4
		c-0.5-1-0.5-2-0.5-3.4c0.2-1.5,0.7-3.7,1.5-6.8L63.8,50c0.7-3.2,0.7-5.6-0.5-7.6c-1.2-2-2.9-3.2-5.4-4.1c4.1-1.5,7.3-3.7,9.3-6.6
		c1.7-2.4,3.2-5.9,4.4-10.5l0.2-0.7C73,16.1,73.3,13,72.8,10.5L72.8,10.5z M56.2,21.5l-1,3.7c0.5-0.7-0.2,1,0,0
		c-0.5,0.7-1.7,4.1-2.2,4.6c-1,1.5-2.4,2.2-3.7,2.2h-4.9l4.4-17.1h3.2C56,14.9,57.4,17.1,56.2,21.5L56.2,21.5z"/>
	<polygon class="st0" points="117.4,2.2 113.8,16.9 94.3,16.9 90.4,31.8 106.9,31.8 103.3,46.1 86.7,46.1 82.3,63 102.1,63 
		98.4,77.4 63.3,77.4 82.6,2.2 	"/>
	<polygon class="st0" points="124.3,2.2 148.4,2.2 143.3,39.6 157.2,2.2 181.6,2.2 162.3,77.4 147.7,77.4 162.6,19.1 138.7,77.4 
		128.7,77.4 135,19.1 119.9,77.4 105,77.4 	"/>
	<path class="st0" d="M221.3,6.6c-1.5-2-3.2-3.2-5.4-4.1S211.3,1,208.9,1h-1c-6.1,0-11.5,2-15.9,5.9s-7.3,9-9,15.6l-9,34.9
		c-0.7,2.9-1,5.6-0.7,7.8c0.2,2.4,0.7,4.6,1.5,6.6c1,2.2,2.7,3.9,4.9,5.1c2.2,1.2,5.1,2,8.3,2h1c5.9,0,11-2,15.6-6.1
		s7.6-9.3,9.3-15.1l9-35.1C224.5,15.7,224,10.3,221.3,6.6L221.3,6.6z M207.9,20.3l-9.8,38.3c-0.5,1.7-1.2,3.4-2.2,4.6
		c-1,1.5-2.2,2-3.7,2h-0.7c-0.7,0-1.2-0.2-1.7-0.5c-0.5-0.2-0.7-0.7-1-1.2c-0.2-0.5-0.2-1-0.2-1.7c0-0.7,0-1.5,0.2-2.2L199.2,20
		c0.5-2,1.2-3.2,2.4-4.1c1-1,2.2-1.5,3.7-1.5h0.5c1.2,0,2.2,0.5,2.4,1.7S208.4,18.6,207.9,20.3L207.9,20.3z"/>
	<polygon class="st0" points="234.5,2.2 251.4,2.2 252.6,46.6 264,2.2 278.9,2.2 259.6,77.4 242.8,77.4 242.3,31 230.1,77.4 
		215.3,77.4 	"/>
	<polygon class="st0" points="282.6,2.2 317.9,2.2 314.3,16.9 304.3,16.9 288.7,77.4 273.3,77.4 288.9,16.9 278.9,16.9 	"/>
	<path class="st0" d="M354.5,6.6c-1.5-2-3.2-3.2-5.4-4.1c-2.2-1-4.4-1.5-6.8-1.5h-1c-6.1,0-11.5,2-15.9,5.9c-4.4,3.9-7.3,9-9,15.6
		l-9,35.1c-0.7,2.9-1,5.6-0.7,7.8c0.2,2.4,0.7,4.6,1.5,6.6c1,2.2,2.7,3.9,4.9,5.1s5.1,2,8.3,2h1c5.9,0,11-2,15.6-6.1
		s7.6-9.3,9.3-15.1l9-34.9C357.9,15.7,357.2,10.3,354.5,6.6L354.5,6.6z M341.4,20.3l-9.8,38.3c-0.5,1.7-1.2,3.4-2.2,4.6
		c-1,1.5-2.2,2-3.7,2H325c-1.5,0-2.2-0.5-2.7-1.7c-0.5-1.2-0.2-2.4,0-4.1l10.2-39.5c0.5-2,1.2-3.2,2.4-4.1c1-1,2.2-1.5,3.7-1.5h0.5
		c1.2,0,2.2,0.5,2.4,1.7C341.6,17.4,341.6,18.6,341.4,20.3L341.4,20.3z"/>
	<polygon class="st0" points="379.7,2.2 371.4,55.7 390.1,2.2 405.3,2.2 396.2,55.9 415.5,2.2 430.9,2.2 399.9,77.4 382.8,77.4 
		390.1,30.8 372.8,77.4 355.8,77.4 363.8,2.2 	"/>
	<path class="st0" d="M462.3,2.2h-20.5l-31.7,75.1h15.6l4.9-13.4h11l-2.2,13.4h16.3L462.3,2.2L462.3,2.2z M449.4,13.9l-6.1,36.8
		h-7.6l13.4-36.8L449.4,13.9L449.4,13.9z"/>
	<polygon class="st0" points="117.4,2.2 113.8,16.9 94.3,16.9 90.4,31.8 106.9,31.8 103.3,46.1 86.7,46.1 82.3,63 102.1,63 
		98.4,77.4 63.3,77.4 82.6,2.2 	"/>
	<polygon class="st0" points="124.3,2.2 148.4,2.2 143.3,39.6 157.2,2.2 181.6,2.2 162.3,77.4 147.7,77.4 162.6,19.1 138.7,77.4 
		128.7,77.4 135,19.1 119.9,77.4 105,77.4 	"/>
	<polygon class="st0" points="234.5,2.2 251.4,2.2 252.6,46.6 264,2.2 278.9,2.2 259.6,77.4 242.8,77.4 242.3,31 230.1,77.4 
		215.3,77.4 	"/>
	<polygon class="st0" points="282.6,2.2 317.9,2.2 314.3,16.9 304.3,16.9 288.7,77.4 273.3,77.4 288.9,16.9 278.9,16.9 	"/>
	<polygon class="st0" points="379.7,2.2 371.4,55.7 390.1,2.2 405.3,2.2 396.2,55.9 415.5,2.2 430.9,2.2 399.9,77.4 382.8,77.4 
		390.1,30.8 372.8,77.4 355.8,77.4 363.8,2.2 	"/>
	<path class="st0" d="M175.5,92.5h-162l-1,3.7h162L175.5,92.5L175.5,92.5z M173.1,101.3h-162l-1,3.7h162L173.1,101.3L173.1,101.3z
		 M170.9,110.1H8.9l-1,3.7h162L170.9,110.1L170.9,110.1z M168.7,118.8H6.7l-1,3.7h162L168.7,118.8L168.7,118.8z"/>
	<path class="st0" d="M192.6,92.5l-7.6,30h6.8l3.2-12.9h1.7c1.7,0,2,1.2,1.7,2.7l-1.7,6.3c-0.5,2-0.5,3.7-0.2,3.9h6.8
		c-0.5-1,0.2-3.7,0.2-4.1l1.7-7.1c0.7-2.4-0.7-3.9-2.9-4.6c3.9-1.2,4.9-3.4,5.9-6.8v-0.2c1-3.4,0-4.9-1-5.9
		c-1.2-1.2-3.9-1.2-6.6-1.2L192.6,92.5L192.6,92.5z M198.2,97.6h1.5c1.7,0,2.4,1,2,2.7l-0.2,1.5c-0.2,1.2-1.2,2.7-2.7,2.7h-2.2
		L198.2,97.6L198.2,97.6z M215,92.5l-7.6,30h6.8l7.6-30H215L215,92.5z M225.3,92.5l-2.9,30h8.5l12.4-30h-6.8l-7.6,21.2l0,0l3.4-21.2
		H225.3L225.3,92.5z M247.2,92.5l-7.6,30h15.6l1.5-5.9h-8.8l1.7-6.6h7.3l1.5-5.9h-7.3l1.5-5.9h8.5l1.5-5.9L247.2,92.5L247.2,92.5z
		 M267,92.5l-7.6,30h6.8l3.2-12.9h1.7c1.7,0,2,1.2,1.7,2.7l-1.7,6.3c-0.5,2-0.5,3.7-0.2,3.9h6.8c-0.5-1,0.2-3.7,0.2-4.1l1.7-7.1
		c0.7-2.4-0.7-3.9-2.9-4.6c3.9-1.2,4.9-3.4,5.9-6.8v-0.2c1-3.4,0-4.9-1-5.9c-1.2-1.2-3.9-1.2-6.6-1.2L267,92.5L267,92.5z
		 M272.6,97.6h1.5c1.7,0,2.4,1,2,2.7l-0.2,1.5c-0.2,1.2-1.2,2.7-2.7,2.7h-2.2L272.6,97.6L272.6,97.6z M293.3,112.2l-1,3.4
		c-1.2,4.6,2.7,7.3,6.8,7.3h0.5c5.1,0,9.5-2.7,11.2-7.8c2-7.6-4.1-9.8-6.6-12.9c-0.7-1-1.2-2-1-2.7c0.2-1,1-2.2,2.9-2.2
		c1.7,0,2,1.2,1.5,3.4l-0.5,1.7h6.3l0.7-2.7c1.5-5.6-2-7.6-6.8-7.6c-3.4,0-5.9,1-7.6,2.7c-1.7,1.7-2.7,3.9-3.2,5.1l-0.2,1
		c-1,3.9,1.5,6.1,2.4,7.1l2.9,2.7c2,1.7,2.4,3.4,2,4.6c-0.2,1.2-1.5,2.4-2.9,2.4h-0.2c-1.5,0-1.7-1.5-1.5-2.7l0.7-2.4h-6.6
		C293.3,112.7,293.3,112.2,293.3,112.2z M320.6,92.5l-7.6,30h6.8l3.2-12.7h3.9l-3.2,12.7h7.1l7.6-30h-7.1l-2.7,11.2h-3.9l2.7-11.2
		H320.6L320.6,92.5z M342.8,92.5l-7.6,30h6.8l7.6-30H342.8L342.8,92.5z M354,92.5l-7.6,30h6.8l2.9-12h4.1c2,0,3.9-0.5,5.6-2
		c1.5-1.2,2.7-3.4,3.7-6.8v-0.5c0.7-3.2,1-5.9-0.7-7.6c-1.2-1-3.9-1.5-6.6-1.5L354,92.5L354,92.5z M359.7,97.9h1.7
		c2.2,0,2.2,2,1.7,3.7c-0.5,1.7-1.2,3.9-3.4,3.9h-2L359.7,97.9L359.7,97.9z M374.8,92.5l1.2,18.1l-2.9,12h6.8l3.2-12.4l10-17.6H386
		l-4.6,10.2h-0.2l0.7-10.2L374.8,92.5L374.8,92.5z M398.7,92.5l-12.9,30h7.1l2-5.4h4.9l-0.7,5.4h7.3l1.7-30H398.7L398.7,92.5z
		 M396.7,111.8l5.4-14.6h0.2l-2.2,14.6H396.7L396.7,111.8z M417,92.5l-7.6,30h6.8l3.2-12.9h1.7c1.7,0,2,1.2,1.7,2.7l-1.7,6.3
		c-0.5,2-0.5,3.7-0.2,3.9h6.8c-0.5-1,0.2-3.7,0.2-4.1l1.7-7.1c0.7-2.4-0.7-3.9-2.9-4.6c3.9-1.2,4.9-3.4,5.9-6.8v-0.2
		c1-3.4,0-4.9-1-5.9c-1.2-1.2-3.9-1.2-6.6-1.2L417,92.5L417,92.5z M422.8,97.6h1.5c1.7,0,2.4,1,2,2.7l-0.2,1.5
		c-0.2,1.2-1.2,2.7-2.7,2.7h-2.2L422.8,97.6L422.8,97.6z M439.4,92.5l-7.6,30h10.2c4.4,0,8.3-3.2,9.5-7.3l3.7-14.6
		c0.7-2.7,0.5-4.6-0.5-6.1c-1-1.2-2.7-1.7-5.1-1.7L439.4,92.5L439.4,92.5z M445,97.6h1.2c1.5,0,2.7,1,2.2,2.4l-3.7,15.1
		c-0.2,1.5-1.7,2.4-3.2,2.4h-1.5L445,97.6L445,97.6z"/>
	<path class="st0" d="M535,1.5h15.6l-19.8,76.3h-15.6L535,1.5L535,1.5z M566.5,1.5h7.1l-1.5,10.7L576,1.5h7.3l-5.6,21.7h-4.4
		l4.4-16.8l-7.1,16.8h-2.9l2-16.8l-4.4,16.8h-4.4L566.5,1.5L566.5,1.5z M585.8,1.3h10l-1.2,4.1h-5.4L588,9.8h4.9l-1.2,4.1h-4.9
		l-1.2,4.9h5.9l-1.2,4.1h-10.2L585.8,1.3L585.8,1.3z M598.9,1.5h7.1l-1.5,10.7l3.9-10.7h7.3l-5.6,21.7h-4.4l4.4-16.8l-7.1,16.8h-2.9
		l2-16.8l-4.4,16.8h-4.4L598.9,1.5L598.9,1.5z M618.7,1.5h6.6c1.7,0,2.9,0.5,3.2,1.2c0.2,0.5,0.5,1,0.5,1.7s0,1.5-0.2,2.2l-0.2,0.7
		c-0.2,1.2-0.7,2.2-1.2,2.9c-0.7,1-1.5,1.5-2.4,1.7c1,0.2,1.7,1,2,2s0.2,2.2-0.2,3.4c-0.5,2-1.2,3.4-2.4,4.4c-1.2,1.2-2.7,2-4.1,2
		h-6.6L618.7,1.5L618.7,1.5z M622.1,4.9l-1.2,4.9h1c0.5,0,0.7-0.2,1.2-0.5c0.5-0.5,0.7-1.2,1-2.2l0,0c0.2-0.7,0.2-1.2,0.2-1.7
		s-0.5-0.7-1-0.7h-1.2V4.9z M619.9,13.5l-1.5,5.9h1.2c0.5,0,1-0.2,1.2-0.7c0.5-0.5,0.7-1.2,1-2.2v-0.2c0.2-1.2,0.5-2,0.2-2.4
		c-0.2-0.5-0.5-0.7-1-0.7L619.9,13.5L619.9,13.5z M632.9,1.3h10l-1.2,4.1H636l-1.2,4.4h4.9l-1.2,4.1h-4.9l-1.2,4.9h5.9L637,23h-10.2
		L632.9,1.3L632.9,1.3z M646,1.5h5.4c1.2,0,2.2,0,2.9,0.2c0.7,0.2,1.2,0.5,1.7,1c0.5,0.5,0.7,1,0.7,1.5c0.2,0.7,0,1.7-0.2,2.9v0.2
		c-0.2,1.5-0.7,2.4-1.2,2.9c-0.7,1-1.7,1.5-2.9,2c0.7,0.2,1.2,0.7,1.7,1.2c0.2,0.5,0.5,1.2,0.2,2.2l-1.5,4.9c-0.2,1-0.5,1.7-0.5,2.2
		c0,0.5,0,0.7,0.2,1H648c0-0.2-0.2-0.5,0-1c0-0.5,0.2-1.2,0.2-2l1.2-4.6c0.2-0.5,0.2-1,0-1.5c-0.2-0.5-0.5-0.5-1-0.5h-1.2l-2.4,9.3
		h-4.4L646,1.5L646,1.5z M649.4,4.9l-1.2,4.9h1.5c0.5,0,0.7-0.2,1.2-0.7c0.2-0.5,0.5-1,0.7-1.5l0.2-1.2c0.2-1.2,0-2-1.2-2L649.4,4.9
		L649.4,4.9z M664.8,7.1c0.5-2,1.5-3.4,2.7-4.4c1.2-1.2,2.9-1.7,4.6-1.7h0.2c0.7,0,1.5,0.2,2.2,0.5c0.7,0.2,1.2,0.7,1.7,1.2
		c1,1.2,1,2.7,0.5,4.6l-2.7,10c-0.5,1.7-1.5,3.2-2.7,4.4c-1.5,1.2-2.9,2-4.6,2h-0.2c-1,0-2-0.2-2.4-0.5c-0.7-0.5-1.2-1-1.5-1.5
		c-0.2-0.7-0.5-1.2-0.5-2c0-0.7,0-1.5,0.2-2.4L664.8,7.1L664.8,7.1z M672.4,6.6c0-0.5,0-1,0-1.2c0-0.2-0.5-0.5-0.7-0.5h-0.2
		c-0.5,0-0.7,0.2-1,0.5c-0.2,0.2-0.5,0.7-0.7,1.2l-2.9,11.5c0,0.5-0.2,1,0,1.2c0,0.2,0.5,0.5,0.7,0.5h0.2c0.5,0,0.7-0.2,1.2-0.7
		c0.2-0.5,0.5-1,0.7-1.5L672.4,6.6L672.4,6.6z M680.9,1.5h9.5l-1.2,4.1h-4.9l-1.2,4.4h4.4l-1,4.4h-4.4l-2.4,9h-4.4L680.9,1.5
		L680.9,1.5z M559.2,28.6h5.4c1.2,0,2.2,0,2.9,0.2c0.7,0.2,1.2,0.5,1.7,1c0.5,0.5,0.7,1,0.7,1.5c0.2,0.7,0,1.7-0.2,2.9v0.2
		c-0.2,1.5-0.7,2.4-1.2,2.9c-0.7,1-1.7,1.5-2.9,2c0.7,0.2,1.2,0.7,1.7,1.2c0.2,0.5,0.5,1.2,0.2,2.2l-1.5,5.1c-0.2,1-0.5,1.7-0.5,2.2
		c0,0.5,0,0.7,0.2,1h-4.4c0-0.2-0.2-0.5,0-1c0-0.5,0.2-1.2,0.2-2l1.2-4.6c0.2-0.5,0.2-1.2,0-1.5c-0.2-0.5-0.5-0.5-1-0.5h-1.2
		l-2.4,9.3h-4.4L559.2,28.6L559.2,28.6z M562.8,32.2l-1.2,4.9h1.5c0.5,0,0.7-0.2,1.2-0.7c0.2-0.5,0.5-1,0.7-1.5l0.2-1.2
		c0.2-1.2,0-2-1.2-2L562.8,32.2L562.8,32.2z M573.6,28.6h10l-1.2,4.1h-5.6l-1.2,4.4h4.9l-1.2,4.1h-4.9l-1.2,4.9h5.9l-1.2,4.1h-10.2
		L573.6,28.6L573.6,28.6z M586.5,28.6h7.1l-1.5,10.7l4.1-10.7h7.3L598,50.3h-4.4l4.4-16.8l-7.1,16.8H588l2-16.8l-4.4,16.8h-4.4
		L586.5,28.6L586.5,28.6z M604.8,34.4c0.5-2,1.5-3.4,2.7-4.4c1.2-1.2,2.9-1.7,4.6-1.7h0.2c0.7,0,1.5,0.2,2.2,0.5
		c0.7,0.2,1.2,0.7,1.7,1.2c0.7,1.2,1,2.7,0.5,4.6l-2.7,10c-0.5,1.7-1.5,3.2-2.7,4.4c-1.5,1.2-2.9,2-4.6,2h-0.2c-1,0-2-0.2-2.4-0.5
		c-0.7-0.5-1.2-1-1.5-1.5c-0.2-0.7-0.5-1.2-0.5-2s0-1.5,0.2-2.4L604.8,34.4L604.8,34.4z M612.1,33.9c0-0.5,0-1,0-1.2
		c-0.2-0.2-0.5-0.5-0.7-0.5h-0.2c-0.5,0-0.7,0.2-1,0.5c-0.2,0.2-0.5,0.7-0.7,1.2l-2.9,11.5c0,0.5-0.2,1,0,1.2c0,0.2,0.5,0.5,0.7,0.5
		h0.2c0.5,0,0.7-0.2,1.2-0.7c0.2-0.5,0.5-1,0.7-1.5L612.1,33.9L612.1,33.9z M620.4,28.6h4.9l0.5,12.9l3.2-12.9h4.4l-5.6,21.7h-4.9
		l-0.2-13.7l-3.4,13.7h-4.4L620.4,28.6L620.4,28.6z M635.5,28.6h10.2l-1.2,4.1h-2.9l-4.4,17.6h-4.4l4.4-17.6h-2.9L635.5,28.6
		L635.5,28.6z M646.3,34.4c0.5-2,1.5-3.4,2.7-4.4c1.2-1.2,2.9-1.7,4.6-1.7h0.2c0.7,0,1.5,0.2,2.2,0.5c0.7,0.2,1.2,0.7,1.7,1.2
		c1,1.2,1,2.7,0.5,4.6l-2.7,10c-0.5,1.7-1.5,3.2-2.7,4.4c-1.5,1.2-2.9,2-4.6,2H648c-1,0-2-0.2-2.4-0.5c-0.7-0.5-1.2-1-1.5-1.5
		c-0.2-0.7-0.5-1.2-0.5-2s0-1.5,0.2-2.4L646.3,34.4L646.3,34.4z M653.3,33.9c0-0.5,0-1,0-1.2c-0.2-0.2-0.5-0.5-0.7-0.5h-0.2
		c-0.5,0-0.7,0.2-1,0.5c-0.2,0.2-0.5,0.7-0.7,1.2l-2.9,11.5c-0.2,0.5-0.2,1,0,1.2c0,0.2,0.5,0.5,0.7,0.5h0.2c0.5,0,0.7-0.2,1.2-0.7
		c0.2-0.5,0.5-1,0.7-1.5L653.3,33.9L653.3,33.9z M661.1,28.6h4.6l-2.4,15.4l5.4-15.4h4.4l-2.7,15.6l5.6-15.6h4.4l-9,21.7h-5.1
		l2.2-13.7l-5.1,13.7h-4.9L661.1,28.6L661.1,28.6z M684.1,28.6h6.1l-2,21.7h-4.6l0.7-3.9h-3.2l-1.5,3.9h-4.6L684.1,28.6L684.1,28.6z
		 M682.4,43h2.4l1.7-10.7L682.4,43L682.4,43z M552.1,55.9h4.4l-2.2,8.3h2.7l2.2-8.3h4.6l-5.6,21.7h-4.6l2.4-9.3h-2.7l-2.4,9.3h-4.4
		L552.1,55.9L552.1,55.9z M565,61.8c0.5-2,1.5-3.4,2.7-4.4c1.2-1.2,2.9-1.7,4.6-1.7h0.2c0.7,0,1.5,0.2,2.2,0.5s1.2,0.7,1.7,1.2
		c1,1.2,1,2.7,0.5,4.6l-2.7,10c-0.5,1.7-1.5,3.2-2.7,4.4c-1.5,1.2-2.9,2-4.6,2h-0.2c-1,0-2-0.2-2.4-0.5c-0.7-0.5-1.2-1-1.5-1.5
		c-0.2-0.7-0.5-1.2-0.5-2c0-0.7,0-1.5,0.2-2.4L565,61.8L565,61.8z M572.4,61c0-0.5,0-1,0-1.2s-0.5-0.5-0.7-0.5h-0.2
		c-0.5,0-0.7,0.2-1,0.5s-0.5,0.7-0.7,1.2l-2.9,11.5c0,0.5-0.2,1,0,1.2c0,0.2,0.5,0.5,0.7,0.5h0.2c0.5,0,0.7-0.2,1.2-0.7
		c0.2-0.5,0.5-1,0.7-1.5L572.4,61L572.4,61z M580.9,55.9h4.4l-4.4,17.6h4.9l-1.2,4.1h-9.3L580.9,55.9L580.9,55.9z M592.4,55.9h6.8
		c1.7,0,2.7,0.5,3.2,1.2c0.2,0.5,0.5,1.2,0.5,2s0,1.7-0.2,2.7l-2.9,10.7c-0.5,1.7-1.2,2.9-2.4,3.9c-1.2,1-2.7,1.5-3.9,1.5h-6.8
		L592.4,55.9L592.4,55.9z M596,59.8L592.4,74h1c0.5,0,1-0.2,1.5-0.5c0.5-0.2,0.7-0.7,0.7-1.2l2.9-11c0.2-0.5,0-1-0.2-1.2
		s-0.7-0.5-1.2-0.5h-1V59.8z M607,55.9h4.4l-5.6,21.7h-4.4L607,55.9L607,55.9z M614.1,55.9h4.9l0.5,12.9l3.2-12.9h4.4l-5.6,21.7
		h-4.9L616.3,64l-3.4,13.7h-4.4L614.1,55.9L614.1,55.9z M632.9,65.9h6.1l-2.9,12h-3.9l0.5-1.7c-0.7,0.7-1.5,1.5-2.2,1.7
		c-0.7,0.2-1.2,0.5-2,0.5h-0.2c-1.5,0-2.4-0.7-2.7-2c-0.2-1.2-0.2-2.4,0.2-3.9l2.9-10.7c0.5-1.7,1.5-2.9,2.9-4.1
		c1.5-1.2,2.9-1.7,4.4-1.7h0.2c2,0,2.9,0.5,3.9,1.5c0.7,1,1,2.2,0.5,3.7l-0.7,2.7h-4.4l0.7-2.4c0.2-0.5,0-1,0-1.2
		c-0.2-0.2-0.5-0.5-1-0.5s-1,0.2-1.2,0.5c-0.2,0.2-0.5,0.7-0.7,1.2l-2.9,11.2c-0.2,0.5-0.2,1,0,1.2c0.2,0.2,0.5,0.5,1,0.5
		s0.7,0,1-0.2c0.5-0.2,0.7-0.7,1-1.5l0.7-2.9h-1.7L632.9,65.9L632.9,65.9z M646.8,70.5h4.4l-0.5,2c-0.2,0.5-0.2,1,0,1.5
		c0,0.5,0.5,0.7,1,0.7h0.2c0.5,0,1-0.2,1.2-0.5c0.5-0.2,0.7-0.7,0.7-1.2c0.2-0.5,0.2-1.2,0-1.7c-0.2-0.7-0.5-1.2-1.2-2l-2-2
		c-0.7-0.7-1.2-1.2-1.5-2c-0.5-1-0.5-2.2-0.2-3.2l0.2-0.7c0.2-0.7,0.5-1.2,0.7-2c0.2-0.7,0.7-1.5,1.5-2c0.7-0.5,1.5-1,2.2-1.5
		c1-0.2,2-0.5,2.9-0.5c1.7,0,2.9,0.5,3.7,1.2c1,1,1.2,2.4,0.5,4.1l-0.5,2H656l0.2-1.2c0.2-0.7,0.2-1.5,0.2-2c0-0.5-0.5-0.7-1-0.7
		s-1,0.2-1.5,0.5c-0.2,0.2-0.5,0.7-0.7,1.2c0,0.5,0,0.7,0.2,1.2c0,0.2,0.2,0.5,0.5,0.7c0.2,0.2,1,1.2,2.2,2.4c1,1,1.7,2,2,2.9
		c0.5,1.5,0.5,2.9,0,4.4c-0.5,2-1.5,3.2-2.9,4.1c-1.5,1-2.9,1.5-4.6,1.5h-0.2c-1.5,0-2.7-0.5-3.4-1.5c-1-1-1.2-2.4-1-3.9L646.8,70.5
		L646.8,70.5z M659.9,72.7h3.9l-1.5,4.9h-3.9L659.9,72.7L659.9,72.7z M673.8,55.9h6.1l-2,21.7h-4.6l0.7-3.9h-3.2l-1.5,3.9h-4.6
		L673.8,55.9L673.8,55.9z M672.1,70.3h2.4l1.7-10.7L672.1,70.3L672.1,70.3z M681.1,72.7h3.9l-1.2,4.9h-3.9L681.1,72.7L681.1,72.7z"
		/>
</g>
</svg>
