<svg id="Слой_1" data-name="Слой 1" xmlns="http://www.w3.org/2000/svg" xmlns:xlink="http://www.w3.org/1999/xlink" viewBox="0 0 81.07 38.13"><defs><style>.cls-1{fill:url(#linear-gradient);}.cls-2{fill:url(#linear-gradient-2);}.cls-3{fill:url(#linear-gradient-3);}.cls-4{fill:url(#linear-gradient-4);}.cls-5{fill:url(#linear-gradient-5);}.cls-6{fill:url(#linear-gradient-6);}.cls-7{fill:url(#linear-gradient-7);}.cls-8{fill:url(#linear-gradient-8);}.cls-9{fill:url(#linear-gradient-9);}</style><linearGradient id="linear-gradient" x1="49.4" y1="9.02" x2="43.06" y2="63.16" gradientUnits="userSpaceOnUse"><stop offset="0" stop-color="#00aac7"/><stop offset="0.2" stop-color="#008aa1"/><stop offset="0.44" stop-color="#006c7c"/><stop offset="0.66" stop-color="#005562"/><stop offset="0.85" stop-color="#004852"/><stop offset="1" stop-color="#00434c"/></linearGradient><linearGradient id="linear-gradient-2" x1="44.31" y1="22.58" x2="31.48" y2="62.14" xlink:href="#linear-gradient"/><linearGradient id="linear-gradient-3" x1="70.97" y1="8.16" x2="41.94" y2="65.14" xlink:href="#linear-gradient"/><linearGradient id="linear-gradient-4" x1="61.09" y1="18.77" x2="42.32" y2="65.62" xlink:href="#linear-gradient"/><linearGradient id="linear-gradient-5" x1="34.55" y1="49.68" x2="20.92" y2="114.36" xlink:href="#linear-gradient"/><linearGradient id="linear-gradient-6" x1="53.05" y1="59.04" x2="5.56" y2="59.04" xlink:href="#linear-gradient"/><linearGradient id="linear-gradient-7" x1="37.89" y1="62.02" x2="7.86" y2="62.02" xlink:href="#linear-gradient"/><linearGradient id="linear-gradient-8" x1="64.37" y1="14.23" x2="28.74" y2="53.53" xlink:href="#linear-gradient"/><linearGradient id="linear-gradient-9" x1="40.77" y1="21.12" x2="23.15" y2="40.56" gradientTransform="translate(0.45 5.62) rotate(-7.79)" xlink:href="#linear-gradient"/></defs><path class="cls-1" d="M61.7,55.66c3.83-8.15,13.06-14.28,18.93-18.84,4.08-3.17,6.42-6.15,4.68-6.12C51,29.35,16.34,44.45,7.61,52.63c-1,.91-2.79,2.71-2.79,3.37,5.4-3.39,12.69-3.93,18.93-2.6S36,56.47,42.36,57.61,55.35,59.55,61.7,55.66Z" transform="translate(-4.82 -26.29)"/><path class="cls-2" d="M63.08,53.15a14,14,0,0,1-7.16.17c-4.34-1-8.1-3.6-11.9-5.93s-7.92-4.52-12.37-4.57C25.5,42.75,19.85,46.74,14,48.1l-.44.26a46.78,46.78,0,0,1,10.33,1.52,25.63,25.63,0,0,0-15.36,2c-.32.27-.62.54-.89.79-1,.91-2.79,2.71-2.79,3.37,5.4-3.39,12.69-3.93,18.93-2.6S36,56.47,42.36,57.61s13,1.94,19.34-2A22.72,22.72,0,0,1,63.08,53.15Z" transform="translate(-4.82 -26.29)"/><path class="cls-3" d="M85.31,30.7c-21.35-.84-42.85,4.7-58.14,11A23.22,23.22,0,0,1,39.5,43.24c2.86,1.29,5.34,3.26,8,4.86s5.78,2.85,8.89,2.44c4.61-.61,7.9-4.56,11.24-7.79a48.11,48.11,0,0,1,12.94-8.94c1.61-.76,3.52-1.24,5.11-2.13C86,31.06,85.93,30.69,85.31,30.7Z" transform="translate(-4.82 -26.29)"/><path class="cls-4" d="M66.08,38.05a42.73,42.73,0,0,0,11.23-7.38,148.08,148.08,0,0,0-45.7,9.27c3.38-.11,6.92.82,10.32,1.35A43,43,0,0,0,66.08,38.05Z" transform="translate(-4.82 -26.29)"/><path class="cls-5" d="M61.7,55.66a21.87,21.87,0,0,1-12,.56c-5-1.27-9.23-4.34-13.78-6.7S26,45.46,21.22,47.18a9.47,9.47,0,0,1,7.84,1.94c1.2,1,2.21,2.65,1.37,3.92a2.69,2.69,0,0,1-3.2.66,18.74,18.74,0,0,1-3-1.91c-3-1.91-6.84-1.92-10.2-.86A36.39,36.39,0,0,0,4.82,56,29.89,29.89,0,0,1,9,54.35c5.72-1.92,11.86-1.42,17.71.06a158.52,158.52,0,0,0,17.69,3.86C50.41,59.09,56.93,59.36,61.7,55.66Z" transform="translate(-4.82 -26.29)"/><path class="cls-6" d="M5.89,58.24A31.31,31.31,0,0,1,17.67,55.7a35.66,35.66,0,0,1,6.1.39c1,.15,2,.35,3,.56s2,.47,2.93.72l2.89.8,2.85.82c1,.28,1.88.53,2.82.76s1.91.43,2.87.62c1.92.37,3.86.67,5.82.88,1,.12,2,.18,3,.25.49,0,1,0,1.48,0s1,0,1.5,0a20.93,20.93,0,0,1-3,.58c-1,.13-2,.2-3,.24a45.12,45.12,0,0,1-6-.23c-1-.11-2-.25-3-.43s-2-.4-3-.63-1.94-.5-2.9-.75l-2.87-.77c-1.9-.51-3.8-1-5.7-1.35a44.83,44.83,0,0,0-5.77-.73A49.13,49.13,0,0,0,5.89,58.24Z" transform="translate(-4.82 -26.29)"/><path class="cls-7" d="M8.19,61.56a17.93,17.93,0,0,1,7.41-1.92,20.25,20.25,0,0,1,3.89.18c.64.09,1.28.21,1.91.34s1.24.29,1.85.45,1.22.33,1.82.51l1.79.53c.59.18,1.16.34,1.74.5s1.18.29,1.78.42c1.19.26,2.4.49,3.62.68.61.09,1.22.17,1.84.24.31,0,.62.07.93.08s.63,0,.95.06a14.64,14.64,0,0,1-3.76.73,25.91,25.91,0,0,1-3.84,0c-.64,0-1.28-.13-1.92-.23s-1.29-.24-1.9-.38l-1.83-.45-1.79-.48c-1.19-.32-2.37-.62-3.55-.86a28.54,28.54,0,0,0-3.56-.52A37.33,37.33,0,0,0,8.19,61.56Z" transform="translate(-4.82 -26.29)"/><path class="cls-8" d="M20.47,44S44.18,29.49,68.19,28.89c0,0-2.58-5.53-20,.26C32,34.51,20.47,42.6,20.47,44Z" transform="translate(-4.82 -26.29)"/><path class="cls-9" d="M24.65,38.87s9.15-8.49,21.51-11.15c0,0-2.73-3.56-10.2.57C32.06,30.44,24.46,37.82,24.65,38.87Z" transform="translate(-4.82 -26.29)"/></svg>