<?xml version="1.0" encoding="utf-8"?>
<!-- Generator: Adobe Illustrator 26.0.3, SVG Export Plug-In . SVG Version: 6.00 Build 0)  -->
<svg version="1.1" id="Слой_1" xmlns="http://www.w3.org/2000/svg" xmlns:xlink="http://www.w3.org/1999/xlink" x="0px" y="0px"
	 viewBox="0 0 81.1 38.1" style="enable-background:new 0 0 81.1 38.1;" xml:space="preserve">
<style type="text/css">
	.st0{fill:url(#SVGID_1_);}
	.st1{fill:url(#SVGID_00000066505288174466961520000005420111189244583588_);}
	.st2{fill:url(#SVGID_00000124853529637906775530000007602560143333673901_);}
	.st3{fill:url(#SVGID_00000152973376229690210160000005571533233389296041_);}
	.st4{fill:url(#SVGID_00000142164401298041658630000013333406408363210420_);}
	.st5{fill:url(#SVGID_00000030480929250539796450000016292277030426981013_);}
	.st6{fill:url(#SVGID_00000098912849275689810190000002966620831367888817_);}
	.st7{fill:url(#SVGID_00000051380773589846068790000006417715883278098060_);}
	.st8{fill:url(#SVGID_00000018938233632438211120000008471822448182157708_);}
</style>
<linearGradient id="SVGID_1_" gradientUnits="userSpaceOnUse" x1="49.4012" y1="30.9799" x2="43.0612" y2="-23.1601" gradientTransform="matrix(1 0 0 -1 -4.82 13.71)">
	<stop  offset="0" style="stop-color:#00AAC7"/>
	<stop  offset="0.2" style="stop-color:#008AA1"/>
	<stop  offset="0.44" style="stop-color:#006C7C"/>
	<stop  offset="0.66" style="stop-color:#005562"/>
	<stop  offset="0.85" style="stop-color:#004852"/>
	<stop  offset="1" style="stop-color:#00434C"/>
</linearGradient>
<path class="st0" d="M56.9,29.4c3.8-8.1,13.1-14.3,18.9-18.8c4.1-3.2,6.4-6.1,4.7-6.1c-34.3-1.4-69,13.8-77.7,21.9
	C1.8,27.2,0,29,0,29.7c5.4-3.4,12.7-3.9,18.9-2.6s12.2,3.1,18.6,4.2S50.5,33.3,56.9,29.4z"/>
<linearGradient id="SVGID_00000152977876122821269450000008927663822802202248_" gradientUnits="userSpaceOnUse" x1="44.3331" y1="17.4125" x2="31.5031" y2="-22.1475" gradientTransform="matrix(1 0 0 -1 -4.82 13.71)">
	<stop  offset="0" style="stop-color:#00AAC7"/>
	<stop  offset="0.2" style="stop-color:#008AA1"/>
	<stop  offset="0.44" style="stop-color:#006C7C"/>
	<stop  offset="0.66" style="stop-color:#005562"/>
	<stop  offset="0.85" style="stop-color:#004852"/>
	<stop  offset="1" style="stop-color:#00434C"/>
</linearGradient>
<path style="fill:url(#SVGID_00000152977876122821269450000008927663822802202248_);" d="M58.3,26.9c-2.3,0.7-4.8,0.7-7.2,0.2
	c-4.3-1-8.1-3.6-11.9-5.9s-7.9-4.5-12.4-4.6c-6.2-0.1-11.8,3.9-17.7,5.3l-0.4,0.3c3.5,0.1,7,0.6,10.3,1.5c-5.2-0.9-10.6-0.2-15.4,2
	c-0.3,0.3-0.6,0.5-0.9,0.8c-1,0.9-2.8,2.7-2.8,3.4c5.4-3.4,12.7-3.9,18.9-2.6s12.2,3,18.6,4.2s13,1.9,19.3-2
	C57.3,28.5,57.7,27.7,58.3,26.9z"/>
<linearGradient id="SVGID_00000077304769168456479330000016040734540546400948_" gradientUnits="userSpaceOnUse" x1="70.9624" y1="31.8439" x2="41.9324" y2="-25.1361" gradientTransform="matrix(1 0 0 -1 -4.82 13.71)">
	<stop  offset="0" style="stop-color:#00AAC7"/>
	<stop  offset="0.2" style="stop-color:#008AA1"/>
	<stop  offset="0.44" style="stop-color:#006C7C"/>
	<stop  offset="0.66" style="stop-color:#005562"/>
	<stop  offset="0.85" style="stop-color:#004852"/>
	<stop  offset="1" style="stop-color:#00434C"/>
</linearGradient>
<path style="fill:url(#SVGID_00000077304769168456479330000016040734540546400948_);" d="M80.5,4.4c-21.3-0.8-42.8,4.7-58.1,11
	c4.2-0.6,8.4-0.1,12.3,1.5c2.9,1.3,5.3,3.3,8,4.9s5.8,2.8,8.9,2.4c4.6-0.6,7.9-4.6,11.2-7.8c3.8-3.7,8.2-6.7,12.9-8.9
	c1.6-0.8,3.5-1.2,5.1-2.1C81.2,4.8,81.1,4.4,80.5,4.4z"/>
<linearGradient id="SVGID_00000117637832604477286850000003345623618845304195_" gradientUnits="userSpaceOnUse" x1="61.0853" y1="21.2319" x2="42.3153" y2="-25.6181" gradientTransform="matrix(1 0 0 -1 -4.82 13.71)">
	<stop  offset="0" style="stop-color:#00AAC7"/>
	<stop  offset="0.2" style="stop-color:#008AA1"/>
	<stop  offset="0.44" style="stop-color:#006C7C"/>
	<stop  offset="0.66" style="stop-color:#005562"/>
	<stop  offset="0.85" style="stop-color:#004852"/>
	<stop  offset="1" style="stop-color:#00434C"/>
</linearGradient>
<path style="fill:url(#SVGID_00000117637832604477286850000003345623618845304195_);" d="M61.3,11.8c4.1-1.9,7.9-4.3,11.2-7.4
	C56.9,5,41.4,8.2,26.8,13.6c3.4-0.1,6.9,0.8,10.3,1.3C45.3,16.3,53.7,15.1,61.3,11.8z"/>
<linearGradient id="SVGID_00000051371307999847399470000017131836539775327146_" gradientUnits="userSpaceOnUse" x1="34.5557" y1="-9.6812" x2="20.9257" y2="-74.3612" gradientTransform="matrix(1 0 0 -1 -4.82 13.71)">
	<stop  offset="0" style="stop-color:#00AAC7"/>
	<stop  offset="0.2" style="stop-color:#008AA1"/>
	<stop  offset="0.44" style="stop-color:#006C7C"/>
	<stop  offset="0.66" style="stop-color:#005562"/>
	<stop  offset="0.85" style="stop-color:#004852"/>
	<stop  offset="1" style="stop-color:#00434C"/>
</linearGradient>
<path style="fill:url(#SVGID_00000051371307999847399470000017131836539775327146_);" d="M56.9,29.4c-3.9,1.3-8,1.5-12,0.6
	c-5-1.3-9.2-4.3-13.8-6.7s-9.9-4.1-14.7-2.3c2.8-0.6,5.6,0.2,7.8,1.9c1.2,1,2.2,2.7,1.4,3.9c-0.8,0.9-2.1,1.2-3.2,0.7
	c-1.1-0.5-2.1-1.2-3-1.9c-3-1.9-6.8-1.9-10.2-0.9c-3.3,1.2-6.4,2.9-9.2,5.1c1.3-0.7,2.7-1.2,4.2-1.7c5.7-1.9,11.9-1.4,17.7,0.1
	c5.8,1.6,11.7,2.9,17.7,3.9C45.6,32.8,52.1,33.1,56.9,29.4z"/>
<linearGradient id="SVGID_00000101824591555257424900000004121555747755983011_" gradientUnits="userSpaceOnUse" x1="53.05" y1="-19.0147" x2="5.56" y2="-19.0147" gradientTransform="matrix(1 0 0 -1 -4.82 13.71)">
	<stop  offset="0" style="stop-color:#00AAC7"/>
	<stop  offset="0.2" style="stop-color:#008AA1"/>
	<stop  offset="0.44" style="stop-color:#006C7C"/>
	<stop  offset="0.66" style="stop-color:#005562"/>
	<stop  offset="0.85" style="stop-color:#004852"/>
	<stop  offset="1" style="stop-color:#00434C"/>
</linearGradient>
<path style="fill:url(#SVGID_00000101824591555257424900000004121555747755983011_);" d="M1.1,32c3.7-1.6,7.7-2.5,11.8-2.5
	c2,0,4.1,0.1,6.1,0.4c1,0.2,2,0.3,3,0.6s2,0.5,2.9,0.7l2.9,0.8l2.8,0.8c1,0.3,1.9,0.5,2.8,0.8s1.9,0.4,2.9,0.6
	c1.9,0.4,3.9,0.7,5.8,0.9c1,0.1,2,0.2,3,0.2c0.5,0,1,0,1.5,0s1,0,1.5,0c-1,0.3-2,0.5-3,0.6c-1,0.1-2,0.2-3,0.2c-2,0.1-4,0-6-0.2
	c-1-0.1-2-0.2-3-0.4s-2-0.4-3-0.6s-1.9-0.5-2.9-0.8l-2.9-0.8c-1.9-0.5-3.8-1-5.7-1.3c-1.9-0.4-3.8-0.6-5.8-0.7
	C8.9,30.9,5,31.2,1.1,32z"/>
<linearGradient id="SVGID_00000028300603980472231770000014882678501242230445_" gradientUnits="userSpaceOnUse" x1="37.89" y1="-22.0229" x2="7.86" y2="-22.0229" gradientTransform="matrix(1 0 0 -1 -4.82 13.71)">
	<stop  offset="0" style="stop-color:#00AAC7"/>
	<stop  offset="0.2" style="stop-color:#008AA1"/>
	<stop  offset="0.44" style="stop-color:#006C7C"/>
	<stop  offset="0.66" style="stop-color:#005562"/>
	<stop  offset="0.85" style="stop-color:#004852"/>
	<stop  offset="1" style="stop-color:#00434C"/>
</linearGradient>
<path style="fill:url(#SVGID_00000028300603980472231770000014882678501242230445_);" d="M3.4,35.3c2.3-1.2,4.8-1.8,7.4-1.9
	c1.3-0.1,2.6,0,3.9,0.2c0.6,0.1,1.3,0.2,1.9,0.3s1.2,0.3,1.9,0.5s1.2,0.3,1.8,0.5l1.8,0.5c0.6,0.2,1.2,0.3,1.7,0.5s1.2,0.3,1.8,0.4
	c1.2,0.3,2.4,0.5,3.6,0.7c0.6,0.1,1.2,0.2,1.8,0.2c0.3,0,0.6,0.1,0.9,0.1s0.6,0,1,0.1c-1.2,0.4-2.5,0.7-3.8,0.7
	c-1.3,0.1-2.6,0.1-3.8,0c-0.6,0-1.3-0.1-1.9-0.2s-1.3-0.2-1.9-0.4L19.7,37l-1.8-0.5c-1.2-0.3-2.4-0.6-3.5-0.9
	c-1.2-0.2-2.4-0.4-3.6-0.5C8.3,34.9,5.8,35,3.4,35.3z"/>
<linearGradient id="SVGID_00000066500663318024406110000017563851955540363654_" gradientUnits="userSpaceOnUse" x1="64.3652" y1="25.7744" x2="28.7352" y2="-13.5256" gradientTransform="matrix(1 0 0 -1 -4.82 13.71)">
	<stop  offset="0" style="stop-color:#00AAC7"/>
	<stop  offset="0.2" style="stop-color:#008AA1"/>
	<stop  offset="0.44" style="stop-color:#006C7C"/>
	<stop  offset="0.66" style="stop-color:#005562"/>
	<stop  offset="0.85" style="stop-color:#004852"/>
	<stop  offset="1" style="stop-color:#00434C"/>
</linearGradient>
<path style="fill:url(#SVGID_00000066500663318024406110000017563851955540363654_);" d="M15.6,17.7c0,0,23.7-14.5,47.7-15.1
	c0,0-2.6-5.5-20,0.3C27.2,8.2,15.6,16.3,15.6,17.7z"/>
<linearGradient id="SVGID_00000142862721006311713960000003699307296258373005_" gradientUnits="userSpaceOnUse" x1="-34.9713" y1="-133.6539" x2="-52.5913" y2="-153.0939" gradientTransform="matrix(0.9908 -0.1355 -0.1355 -0.9908 55.4256 -142.4272)">
	<stop  offset="0" style="stop-color:#00AAC7"/>
	<stop  offset="0.2" style="stop-color:#008AA1"/>
	<stop  offset="0.44" style="stop-color:#006C7C"/>
	<stop  offset="0.66" style="stop-color:#005562"/>
	<stop  offset="0.85" style="stop-color:#004852"/>
	<stop  offset="1" style="stop-color:#00434C"/>
</linearGradient>
<path style="fill:url(#SVGID_00000142862721006311713960000003699307296258373005_);" d="M19.8,12.6c0,0,9.1-8.5,21.5-11.1
	c0,0-2.7-3.6-10.2,0.6C27.2,4.1,19.6,11.5,19.8,12.6z"/>
</svg>
